<svg width="532" height="465" viewBox="0 0 532 465" fill="none" xmlns="http://www.w3.org/2000/svg">
<path d="M413.629 111.891C413.739 113.969 413.85 116.047 413.933 118.779C413.845 119.597 413.785 119.762 413.548 120.264C413.96 126.367 412.8 132.602 417.859 137.555C419.485 145.102 423.541 150.472 429.855 154.585C430.361 155.61 430.66 156.454 431.248 156.966C445.633 169.506 462.431 172.176 480.605 168.748C482.206 168.446 483.57 166.882 485.155 165.809C485.266 165.715 485.555 165.762 485.985 165.829C492.516 163.91 495.93 166.888 498.165 172.179C498.739 173.538 499.437 174.882 500.295 176.077C503.596 180.681 506.985 185.222 510.341 189.787C510.341 189.787 510.253 189.793 510.19 190.162C510.436 192.123 510.343 193.954 511.122 195.269C517.366 205.811 523.701 216.302 530.176 226.704C532.286 230.093 532.24 233.008 530.195 236.434C523.919 246.945 517.865 257.589 511.751 268.196C506.805 276.777 502.049 285.474 496.829 293.884C495.91 295.364 492.957 296.665 491.227 296.372C483.931 295.139 476.806 292.841 469.497 291.742C459.828 290.288 450.397 292.827 442.127 297.323C432.353 302.638 423.971 310.139 419.267 320.714C416.694 326.5 412.35 331.938 414.703 338.99C414.69 339.72 414.677 340.45 414.261 341.767C411.492 355.471 414.42 367.539 422.086 378.184C425.161 382.453 429.826 385.577 433.902 389.533C437.469 392.822 438.744 396.19 436.017 400.347C435.774 400.717 435.861 401.304 435.485 401.93C433.045 405.98 430.915 409.89 428.465 413.922C424.292 420.323 420.213 426.479 416.658 432.924C414.154 437.462 412.361 442.391 410.223 447.122C410.195 447.098 410.263 447.071 409.999 447.243C409.513 447.982 409.291 448.549 409.071 449.088C409.073 449.061 409.12 449.089 408.752 449.134C407.649 450.861 406.914 452.543 406.152 454.221C406.125 454.217 406.181 454.231 405.827 454.237C404.28 455.304 402.528 456.139 401.991 457.466C399.836 462.79 396.004 464.131 390.541 464.062C370.401 463.809 350.256 463.957 330.113 463.955C323.498 463.954 322.631 462.699 321.896 456.216C321.452 452.309 319.557 448.567 318.251 444.384C317.384 442.72 316.58 441.423 315.815 440.125C315.853 440.125 315.844 440.201 315.837 439.882C315.451 439.082 315.071 438.602 314.714 438.128C314.737 438.134 314.688 438.156 314.768 437.773C313.176 430.744 309.801 425.472 303.02 422.54C297.595 415.923 290.922 412.378 282.424 412.243C282.263 412.266 282.001 412.072 281.818 411.746C280.069 410.635 278.503 409.179 276.939 409.183C270.485 409.198 264.025 409.562 257.584 410.031C256.32 410.123 255.131 411.251 253.653 412.022C253.027 412.176 252.655 412.208 251.865 412.164C246.476 412.367 241.71 413.068 239.074 418.097C239.07 418.061 239.143 418.06 238.891 418.15C238.411 418.508 238.184 418.777 237.957 419.045C237.957 419.045 237.897 419.391 237.57 419.586C236.873 419.911 236.502 420.04 235.903 419.966C234.497 420.918 233.319 422.073 232.12 423.169C232.099 423.111 232.217 423.074 231.962 423.188C231.489 423.595 231.27 423.889 231.062 424.131C231.074 424.079 231.178 424.107 230.865 424.149C230.23 424.674 229.908 425.157 229.565 425.655C229.543 425.669 229.56 425.718 229.216 425.606C227.912 426.328 226.953 427.161 226.02 428.302C226.1 428.809 226.153 429.008 226.178 429.148C226.151 429.09 226.251 429.17 225.884 429.176C224.091 431.547 222.665 433.913 221.214 436.282C221.19 436.285 221.237 436.291 220.879 436.297C214.969 442.923 212.241 450.387 213.745 459.398C213.732 460.08 213.675 460.469 213.28 460.976C208.8 462.05 204.673 463.74 200.512 463.83C185.199 464.161 169.875 464.002 154.556 463.939C149.089 463.917 143.58 463.161 138.173 463.65C134.463 463.985 132.364 462.469 130.745 459.885C127.934 455.398 125.616 450.601 122.761 446.144C121.13 443.597 118.847 441.466 116.887 439.137C116.917 439.126 116.882 439.179 116.864 438.859C116.465 438.051 116.082 437.563 115.741 437.095C115.781 437.114 115.715 437.175 115.794 436.79C114.505 434.369 113.137 432.334 111.787 430.272C111.805 430.246 111.865 430.267 111.793 430.017C111.488 429.518 111.255 429.269 110.797 428.947C110.572 428.874 110.105 428.805 110.105 428.805C110.021 428.44 109.937 428.074 110.023 427.188C107.534 422.038 104.875 417.408 102.17 412.399C100.689 408.964 99.6932 405.579 97.7085 402.937C95.1862 399.579 95.3463 396.908 98.3664 393.936C99.6887 392.442 100.677 391.043 101.665 389.644C101.665 389.644 101.691 389.73 101.925 389.654C102.406 389.299 102.652 389.018 102.9 388.817C102.901 388.896 102.743 388.891 103.004 388.766C103.491 388.335 103.717 388.028 103.956 387.52C103.97 387.318 103.842 386.935 103.842 386.935C103.842 386.935 103.931 386.929 104.1 386.947C104.27 386.965 104.641 386.944 104.915 386.821C105.421 386.38 105.653 386.063 105.858 385.758C105.83 385.77 105.795 385.719 106.145 385.731C109.564 381.789 113.541 378.243 115.536 373.805C122.353 358.641 122.375 343.012 116.412 327.524C115.436 324.989 113.016 323.011 111.176 320.428C108.452 311.549 102.069 306.891 94.075 303.437C91.2442 301.616 88.6802 299.784 85.8344 298.674C75.1203 294.494 63.9904 293.455 52.7267 295.641C50.2835 296.115 48.1862 298.371 45.9297 299.807C45.9297 299.807 45.7813 299.995 45.2772 299.933C40.7138 300.721 37.8463 299.551 35.8285 295.62C33.6714 291.417 30.7741 287.601 28.428 283.486C22.8127 273.636 17.3701 263.689 11.7823 253.824C8.03972 247.216 4.02857 240.756 0.47086 234.053C-0.244656 232.705 -0.0554912 230.22 0.730767 228.836C6.94225 217.896 13.4078 207.1 19.7788 196.251C24.7244 187.829 29.5575 179.338 34.6821 171.027C35.3869 169.883 37.567 168.905 38.9237 169.062C41.8312 169.399 44.6221 170.633 47.5044 171.316C70.4549 176.749 89.9293 170.95 105.276 152.855C107.462 150.278 108.226 146.495 109.648 143.271C109.849 142.652 110.05 142.034 110.818 141.178C111.906 140.551 112.681 140.275 112.912 139.756C118.758 126.613 119.293 112.929 114.495 99.6738C111.131 90.3811 105.723 81.8404 97.7845 75.2369C91.9631 70.3943 92.2744 68.9238 96.1295 62.3577C107.267 43.3879 118.153 24.2708 129.451 5.05302C132.102 3.58901 134.431 1.16973 136.78 1.14938C161.489 0.935305 186.201 1.10451 210.94 1.59056C212.182 7.99634 212.837 14.1731 214.817 19.8913C216.046 23.4412 216.921 28.2071 222.029 29.1308C222.029 29.1308 222.222 29.1736 222.172 29.6821C223.027 32.0646 223.472 34.4788 224.921 35.7136C229.658 39.7486 234.569 43.6447 239.762 47.0652C251.285 54.6558 264.392 55.9255 277.267 53.1349C299.967 48.2148 314.953 34.4711 320.167 10.7789C320.733 9.72016 321.15 8.98326 321.371 8.19164C323.39 0.975688 323.38 0.987666 330.755 0.988696C350.403 0.991442 370.053 1.0817 389.7 0.904238C394.695 0.859118 399.281 1.23223 402.949 5.46163C404.427 7.75965 405.859 9.69347 407.262 11.6797C407.233 11.7321 407.118 11.697 407.229 11.9542C407.605 12.4671 407.87 12.7229 408.338 13.0126C408.541 13.0465 408.951 13.0753 408.951 13.0753C408.986 13.2387 409.021 13.4022 409.136 13.954C409.215 14.3424 409.13 14.7407 409.087 15.1403C409.114 18.7411 409.674 21.5994 413.623 22.0883C413.623 22.0883 413.834 21.953 413.897 22.2093C414.019 22.8095 414.078 23.1534 414.093 23.9083C415.663 27.2477 417.277 30.176 418.928 33.4691C421.518 39.1202 423.782 44.5748 426.738 49.6247C428.317 52.322 431.089 54.3211 433.314 56.6557C433.305 56.6761 433.266 56.6958 433.189 57.103C434.232 59.0449 435.351 60.5796 436.487 62.1138C436.502 62.1133 436.531 62.0981 436.42 62.5539C436.3 66.9813 435.294 70.3092 431.496 72.5193C430.475 73.1134 430.3 75.1613 429.737 76.5419C429.737 76.5419 429.71 76.683 429.268 76.6061C427.884 77.7445 426.943 78.9598 425.975 80.3691C425.836 80.8266 425.637 80.9783 424.985 81.051C423.716 82.3608 422.814 83.6376 421.594 85.0376C416.091 91.5243 413.431 98.8195 413.162 107.35C413.108 108.139 413.1 108.591 412.901 109.242C413.017 110.257 413.323 111.074 413.629 111.891ZM316.943 199.887C318.816 208.366 324.29 214.345 331.483 218.284C337.043 221.328 343.342 223.511 350.67 221.127C351.097 221.163 351.523 221.199 352.686 221.621C364.63 221.417 376.576 220.95 388.516 221.079C402.847 221.234 415.011 217.361 422.947 204.502C427.844 196.565 431.677 188.178 428.749 178.683C426.718 172.099 424.076 165.595 420.842 159.515C415.335 149.162 409.958 138.577 403.068 129.157C390.958 112.604 369.863 109.404 352.403 120.013C351.234 120.723 350.785 122.618 350.005 124.007C350.005 124.007 349.96 124.004 349.216 123.99C346.801 126.04 343.812 127.694 342.073 130.211C335.475 139.758 328.952 149.389 323.056 159.375C319.234 165.848 315.554 172.73 313.652 179.915C311.982 186.226 311.937 193.384 316.943 199.887ZM139.23 342.317C155.769 354.448 178.065 351.823 189.381 335.735C198.184 323.22 206.358 310.236 214.28 297.138C221.468 285.252 220.971 272.781 213.86 261.095C206.854 249.579 196.201 243.678 182.483 244.198C168.834 244.715 155.175 245.187 141.55 246.111C112.772 248.064 97.9777 275.907 112.306 300.876C118.023 310.84 123.625 320.879 129.655 330.651C132.154 334.701 135.639 338.143 139.23 342.317ZM125.378 212.251C130.249 213.84 135.037 216.407 140.008 216.833C154.266 218.054 168.594 218.516 182.902 219.07C197.324 219.628 208.56 213.712 215.643 201.146C222.729 188.575 221.886 175.905 214.144 163.765C207.072 152.674 199.977 141.595 192.728 130.62C177.095 106.952 145.337 107.934 130.991 132.492C125.197 142.41 119.527 152.401 113.76 162.335C103.201 180.523 107.481 199.878 125.378 212.251ZM322.611 98.7297C321.332 79.0913 306.468 65.042 286.915 65.0167C274.755 65.0009 262.572 65.4923 250.439 64.9203C226.132 63.7743 204.888 90.5194 218.242 117.045C224.376 129.23 230.567 141.391 237.012 153.412C243.532 165.573 253.912 172.071 267.726 172.29C281.939 172.515 292.813 166.274 299.593 153.706C306.068 141.702 312.53 129.659 318.213 117.273C320.702 111.849 321.238 105.529 322.611 98.7297ZM331.521 319.018C334.939 324.335 338.255 329.72 341.791 334.957C356.88 357.301 388.072 356.743 402.097 333.777C408.77 322.85 415.212 311.768 421.38 300.549C433.762 278.031 418.38 249.596 393.077 248.118C378.958 247.293 364.825 246.629 350.689 246.207C336.658 245.788 325.857 251.842 318.87 263.96C311.766 276.282 312.342 288.737 319.745 300.817C323.394 306.772 327.293 312.575 331.521 319.018ZM241.813 302.302C239.338 305.625 236.414 308.706 234.469 312.314C228.231 323.886 222.269 335.61 216.357 347.355C203.612 372.679 220.41 399.8 248.86 399.901C260.355 399.941 271.851 399.944 283.346 399.887C311.93 399.745 328.53 372.283 315.45 346.801C309.902 335.992 303.955 325.371 298.819 314.371C287.182 289.445 257.641 287.313 241.813 302.302Z" fill="#F7BD25"/>
</svg>
